<svg width="22" height="22" fill="none" xmlns="http://www.w3.org/2000/svg"><path fill-rule="evenodd" clip-rule="evenodd" d="M3.751 0H.596a.87.87 0 01-.379.087H0v6.522h.217a.87.87 0 00.87-.87v-.435a.87.87 0 01.87-.87h.434a.87.87 0 00.87-.869V3.13a.87.87 0 01.87-.87h.434a.87.87 0 01.87.87v.435a.87.87 0 00.87.87h.434a.87.87 0 01.87.87v.434a.87.87 0 00.87.87h.434a.87.87 0 00.87-.87v-.435a.87.87 0 01.87-.87h.434a.87.87 0 00.87-.869V3.13a.87.87 0 01.87-.87h.434a.87.87 0 01.87.87v.435a.87.87 0 00.869.87h.435a.87.87 0 01.87.87v.434a.87.87 0 00.869.87h2.609a.87.87 0 00.87-.87V3.13a.87.87 0 01.869-.87H22V.088a.868.868 0 00-.044-.001h-.434a.87.87 0 01-.38-.087H13.64a.87.87 0 01-.38.087h-.434A.869.869 0 0112.447 0H4.944a.87.87 0 01-.379.087H4.13A.87.87 0 013.751 0zM22 6.61a.86.86 0 00-.044-.001h-.434a.87.87 0 00-.87.87v.434a.87.87 0 00.87.87h.434L22 8.782V6.61zm0 4.348a.896.896 0 00-.044-.002h-.434a.87.87 0 00-.87.87v.435a.87.87 0 00.87.87h.434c.015 0 .03 0 .044-.002v-2.171zm0 4.347a.896.896 0 00-.044 0h-.434a.87.87 0 00-.87.869v.435a.87.87 0 00.87.87h.434l.044-.002v-2.172zm0 4.348a.784.784 0 00-.044 0h-.434a.87.87 0 01-.87-.87v-.435a.87.87 0 00-.87-.87h-.434a.87.87 0 00-.87.87v.435a.87.87 0 01-.87.87h-.434a.87.87 0 01-.87-.87v-.435a.87.87 0 01.87-.87h.435a.87.87 0 00.87-.87v-.434a.87.87 0 00-.87-.87h-.435a.87.87 0 01-.87-.87V14a.87.87 0 00-.87-.87H15a.87.87 0 00-.87.87v2.609a.87.87 0 01-.87.87h-.434a.87.87 0 01-.87-.87V14a.87.87 0 00-.869-.87h-.435a.87.87 0 00-.87.87v.435a.87.87 0 01-.869.87h-.435a.87.87 0 01-.87-.87V14a.87.87 0 00-.869-.87h-.435a.87.87 0 00-.87.87v2.609a.87.87 0 01-.869.87H4.13a.87.87 0 01-.87-.87V14a.87.87 0 00-.869-.87h-.434a.87.87 0 00-.87.87v.435a.87.87 0 01-.87.87H0v2.173h.217a.87.87 0 01.87.87v2.608a.87.87 0 00.87.87h.434a.87.87 0 00.87-.87v-.434a.87.87 0 01.87-.87h.434a.87.87 0 01.87.87v.434a.87.87 0 00.87.87h4.782a.87.87 0 00.87-.87v-.434a.87.87 0 01.87-.87h.434a.87.87 0 01.87.87v.434a.87.87 0 00.869.87h6.956l.044-.001v-2.172zM0 10.957h.217a.87.87 0 00.87-.87v-.435a.87.87 0 00-.87-.87H0v2.175zm7.609-10a.87.87 0 01.87-.87h.434a.87.87 0 01.87.87v.434a.87.87 0 01-.87.87h-.435a.87.87 0 01-.87-.87V.957zm8.695 0a.87.87 0 01.87-.87h.435a.87.87 0 01.87.87v.434a.87.87 0 01-.87.87h-.435a.87.87 0 01-.87-.87V.957zM3.261 7.478a.87.87 0 01.87-.87h.434a.87.87 0 01.87.87v.435a.87.87 0 01-.87.87H4.13a.87.87 0 01-.87-.87v-.435zm8.695 0a.87.87 0 01.87-.87h.435a.87.87 0 01.87.87v.435a.87.87 0 01-.87.87h-.435a.87.87 0 01-.87-.87v-.435zM7.61 9.652a.87.87 0 01.87-.87h.434a.87.87 0 01.87.87v2.609a.87.87 0 01-.87.87h-.435a.87.87 0 01-.87-.87V9.652zm8.695 0a.87.87 0 01.87-.87h2.609a.87.87 0 01.87.87v.435a.87.87 0 01-.87.87h-.435a.87.87 0 00-.87.87v.434a.87.87 0 01-.87.87h-.434a.87.87 0 01-.87-.87V9.652zM3.261 11.826a.87.87 0 01.87-.87h.434a.87.87 0 01.87.87v.435a.87.87 0 01-.87.87H4.13a.87.87 0 01-.87-.87v-.435zm8.695 0a.87.87 0 01.87-.87h.435a.87.87 0 01.87.87v.435a.87.87 0 01-.87.87h-.435a.87.87 0 01-.87-.87v-.435zM7.61 18.348a.87.87 0 01.87-.87h.434a.87.87 0 01.87.87v.435a.87.87 0 01-.87.87h-.435a.87.87 0 01-.87-.87v-.435zM18.479 14a.87.87 0 01.869-.87h.435a.87.87 0 01.87.87v.435a.87.87 0 01-.87.87h-.435a.87.87 0 01-.87-.87V14z" fill="#000" fill-opacity=".8"/></svg>