<svg width="22" height="22" fill="none" xmlns="http://www.w3.org/2000/svg"><path fill-rule="evenodd" clip-rule="evenodd" d="M.913 0v1.478a.435.435 0 00.435.435h1.304a.435.435 0 01.435.435v1.304a.435.435 0 01-.435.435H1.348a.435.435 0 01-.435-.435V2.348a.435.435 0 00-.435-.435H0v8.696h2.652a.435.435 0 00.435-.435V8.87a.435.435 0 01.435-.435h1.304A.435.435 0 005.261 8V6.696a.435.435 0 01.435-.435H7a.435.435 0 01.435.435V8a.435.435 0 00.435.435h1.304a.435.435 0 01.435.435v1.304a.435.435 0 00.434.435h1.305a.435.435 0 00.435-.435V8.87a.435.435 0 01.434-.435h1.305A.435.435 0 0013.956 8V6.696a.435.435 0 01.435-.435h1.305a.435.435 0 01.434.435V8a.435.435 0 00.435.435h1.305a.435.435 0 01.434.435v1.304a.435.435 0 00.435.435H22V0h-1.485a.433.433 0 00-.037.174v1.304a.435.435 0 01-.434.435h-1.305a.435.435 0 01-.435-.435V.174A.43.43 0 0018.268 0h-2.101a.435.435 0 00-.037.174v3.478a.435.435 0 01-.434.435H14.39a.435.435 0 01-.434-.435V.174c0-.06-.013-.12-.037-.174H11.82a.435.435 0 00-.036.174v1.304a.435.435 0 01-.435.435h-1.305a.435.435 0 01-.434-.435V.174c0-.06.012-.12.036-.174H7.398a.435.435 0 01.037.174v3.478A.435.435 0 017 4.087H5.696a.435.435 0 01-.435-.435V.174c0-.06-.013-.12-.036-.174H.913zM22 12.783h-3.26a.435.435 0 00-.436.434v3.479a.435.435 0 00.435.434h1.305a.435.435 0 00.434-.434V15.39a.435.435 0 01.435-.434H22v-2.174zm0 4.347h-1.087a.434.434 0 00-.435.435v1.305a.44.44 0 00.02.13H22v-1.87zM18 22v-3h.324a.433.433 0 01-.02-.13v-1.305a.435.435 0 00-.434-.435h-1.305a.434.434 0 00-.435.435v3.479a.435.435 0 01-.434.434H14.39a.435.435 0 01-.434-.434v-3.479a.435.435 0 00-.435-.435h-1.305a.434.434 0 00-.434.435v1.305a.435.435 0 01-.435.434h-1.305a.435.435 0 01-.434-.434v-1.305a.435.435 0 00-.435-.435H7.87a.435.435 0 00-.435.435v3.479a.435.435 0 01-.435.434H5.696a.435.435 0 01-.435-.434v-3.479a.435.435 0 00-.435-.435H3.522a.435.435 0 00-.435.435v1.305a.435.435 0 01-.435.434H1.348a.435.435 0 00-.435.435v1.305a.435.435 0 00.435.434h1.304a.435.435 0 01.435.435V22h6.522v-.087a.435.435 0 01.434-.435h1.305a.435.435 0 01.435.435V22H18zM0 19.304h.478a.435.435 0 00.435-.434v-1.305a.435.435 0 00-.435-.435H0v2.174zm0-4.347h2.652a.435.435 0 00.435-.435v-1.305a.435.435 0 00-.435-.434H0v2.174zM9.736 4.213a.435.435 0 00-.127.308v1.304a.435.435 0 00.434.435h1.305a.435.435 0 00.435-.435V4.522a.435.435 0 00-.435-.435h-1.305a.435.435 0 00-.307.127zm8.696 0a.435.435 0 00-.128.308v1.304a.435.435 0 00.435.435h1.305a.435.435 0 00.434-.435V4.522a.435.435 0 00-.434-.435h-1.305a.435.435 0 00-.307.127zM5.388 10.736a.435.435 0 00-.127.307v1.305a.435.435 0 00.435.435H7a.435.435 0 00.435-.435v-1.305A.435.435 0 007 10.61H5.696a.435.435 0 00-.308.127zm8.696 0a.435.435 0 00-.127.307v1.305a.435.435 0 00.434.435h1.305a.435.435 0 00.434-.435v-1.305a.435.435 0 00-.434-.434H14.39a.435.435 0 00-.307.127zM9.736 12.91a.435.435 0 00-.127.307v3.479a.435.435 0 00.434.434h1.305a.435.435 0 00.435-.434v-3.479a.435.435 0 00-.435-.434h-1.305a.435.435 0 00-.307.127zm-4.348 2.174a.435.435 0 00-.127.307v1.305a.435.435 0 00.435.434H7a.435.435 0 00.435-.434V15.39A.435.435 0 007 14.957H5.696a.435.435 0 00-.308.127zm8.696 0a.434.434 0 00-.127.307v1.305a.434.434 0 00.434.434h1.305a.435.435 0 00.434-.434V15.39a.435.435 0 00-.434-.434H14.39a.434.434 0 00-.307.127z" fill="#000" fill-opacity=".8"/></svg>