<svg width="22" height="22" fill="none" xmlns="http://www.w3.org/2000/svg"><path fill-rule="evenodd" clip-rule="evenodd" d="M4.728 0h-.76a.38.38 0 00-.381.38v.761a.38.38 0 00.38.38h.761a.38.38 0 00.38-.38v-.76A.38.38 0 004.729 0zm2.174 0h-.76a.38.38 0 00-.381.38v.761a.38.38 0 00.38.38h.761a.38.38 0 00.38-.38v-.76A.38.38 0 006.903 0zm4.348 0h-.76a.38.38 0 00-.381.38v.761a.38.38 0 00.38.38h.761a.38.38 0 00.38-.38v-.76A.38.38 0 0011.25 0zm2.174 0h-.761a.38.38 0 00-.38.38v.761a.38.38 0 00.38.38h.76a.38.38 0 00.381-.38v-.76a.38.38 0 00-.38-.381zm2.174 0h-.761a.38.38 0 00-.38.38v.761a.38.38 0 00.38.38h.76a.38.38 0 00.381-.38v-.76a.38.38 0 00-.38-.381zm4.348 0h-.761a.38.38 0 00-.38.38v.761a.38.38 0 00.38.38h.76a.38.38 0 00.381-.38v-.76a.38.38 0 00-.38-.381zM22 0h-.641a.38.38 0 00-.38.38v.761a.38.38 0 00.38.38H22V0zm0 6.522h-.641a.38.38 0 00-.38.38v.761a.38.38 0 00.38.38H22V6.522zm0 4.348h-.641a.38.38 0 00-.38.38v.76a.38.38 0 00.38.381H22V10.87zm0 4.347h-.641a.38.38 0 00-.38.38v.762a.38.38 0 00.38.38H22v-1.522zM0 16.74h.38a.38.38 0 00.38-.38v-.761a.38.38 0 00-.38-.38H0v1.521zm0-6.522h.38a.38.38 0 00.38-.38v-.76a.38.38 0 00-.38-.381H0v1.521zM0 5.87h.38a.38.38 0 00.38-.38v-.762a.38.38 0 00-.38-.38H0V5.87zm0-2.174h.38a.38.38 0 00.38-.38v-.762a.38.38 0 00-.38-.38H0v1.522zm2.554-1.522h-.76a.38.38 0 00-.381.38v.761a.38.38 0 00.38.38h.761a.38.38 0 00.38-.38v-.76a.38.38 0 00-.38-.381zm4.348 0h-.76a.38.38 0 00-.381.38v.761a.38.38 0 00.38.38h.761a.38.38 0 00.38-.38v-.76a.38.38 0 00-.38-.381zm2.174 0h-.76a.38.38 0 00-.381.38v.761a.38.38 0 00.38.38h.761a.38.38 0 00.38-.38v-.76a.38.38 0 00-.38-.381zm2.174 0h-.76a.38.38 0 00-.381.38v.761a.379.379 0 00.38.38h.761a.38.38 0 00.38-.38v-.76a.38.38 0 00-.38-.381zm4.348 0h-.761a.38.38 0 00-.38.38v.761a.38.38 0 00.38.38h.76a.38.38 0 00.381-.38v-.76a.38.38 0 00-.38-.381zm2.174 0h-.761a.38.38 0 00-.38.38v.761a.38.38 0 00.38.38h.76a.38.38 0 00.381-.38v-.76a.38.38 0 00-.38-.381zm2.174 0h-.761a.38.38 0 00-.38.38v.761a.38.38 0 00.38.38h.76a.38.38 0 00.381-.38v-.76a.38.38 0 00-.38-.381zM9.076 4.348h-.76a.38.38 0 00-.381.38v.761a.38.38 0 00.38.38h.761a.38.38 0 00.38-.38v-.76a.38.38 0 00-.38-.381zm8.696 0h-.761a.38.38 0 00-.38.38v.761a.38.38 0 00.38.38h.76a.38.38 0 00.381-.38v-.76a.38.38 0 00-.38-.381zm2.174 0h-.761a.38.38 0 00-.38.38v.761a.38.38 0 00.38.38h.76a.38.38 0 00.381-.38v-.76a.38.38 0 00-.38-.381zM4.728 6.522h-.76a.38.38 0 00-.381.38v.761a.38.38 0 00.38.38h.761a.38.38 0 00.38-.38v-.76a.38.38 0 00-.38-.381zm8.696 0h-.761a.38.38 0 00-.38.38v.761a.38.38 0 00.38.38h.76a.38.38 0 00.381-.38v-.76a.38.38 0 00-.38-.381zM9.076 8.696h-.76a.38.38 0 00-.381.38v.761a.38.38 0 00.38.38h.761a.38.38 0 00.38-.38v-.76a.38.38 0 00-.38-.381zm8.696 0h-.761a.38.38 0 00-.38.38v.761a.38.38 0 00.38.38h.76a.38.38 0 00.381-.38v-.76a.38.38 0 00-.38-.381zm2.174 0h-.761a.38.38 0 00-.38.38v.761a.38.38 0 00.38.38h.76a.38.38 0 00.381-.38v-.76a.38.38 0 00-.38-.381zM4.728 10.87h-.76a.38.38 0 00-.381.38v.76a.38.38 0 00.38.381h.761a.379.379 0 00.38-.38v-.761a.38.38 0 00-.38-.38zm4.348 0h-.76a.38.38 0 00-.381.38v.76a.38.38 0 00.38.381h.761a.38.38 0 00.38-.38v-.761a.38.38 0 00-.38-.38zm4.348 0h-.761a.38.38 0 00-.38.38v.76a.38.38 0 00.38.381h.76a.38.38 0 00.381-.38v-.761a.38.38 0 00-.38-.38zm4.348 0h-.761a.38.38 0 00-.38.38v.76a.38.38 0 00.38.381h.76a.38.38 0 00.381-.38v-.761a.38.38 0 00-.38-.38zM2.554 13.044h-.76a.38.38 0 00-.381.38v.76a.38.38 0 00.38.381h.761a.38.38 0 00.38-.38v-.761a.38.38 0 00-.38-.38zm4.348 0h-.76a.38.38 0 00-.381.38v.76a.38.38 0 00.38.381h.761a.38.38 0 00.38-.38v-.761a.38.38 0 00-.38-.38zm4.348 0h-.76a.38.38 0 00-.381.38v.76a.38.38 0 00.38.381h.761a.38.38 0 00.38-.38v-.761a.38.38 0 00-.38-.38zm4.348 0h-.761a.38.38 0 00-.38.38v.76a.38.38 0 00.38.381h.76a.38.38 0 00.381-.38v-.761a.38.38 0 00-.38-.38zm4.348 0h-.761a.38.38 0 00-.38.38v.76a.381.381 0 00.38.381h.76a.38.38 0 00.381-.38v-.761a.381.381 0 00-.38-.38zM2.554 15.216h-.76a.38.38 0 00-.381.38v.762a.38.38 0 00.38.38h.761a.38.38 0 00.38-.38v-.761a.38.38 0 00-.38-.38zm4.348 0h-.76a.38.38 0 00-.381.38v.762a.38.38 0 00.38.38h.761a.38.38 0 00.38-.38v-.761a.38.38 0 00-.38-.38zm2.174 0h-.76a.38.38 0 00-.381.38v.762a.38.38 0 00.38.38h.761a.38.38 0 00.38-.38v-.761a.38.38 0 00-.38-.38zm2.174 0h-.76a.38.38 0 00-.381.38v.762a.38.38 0 00.38.38h.761a.38.38 0 00.38-.38v-.761a.38.38 0 00-.38-.38zm4.348 0h-.761a.38.38 0 00-.38.38v.762a.38.38 0 00.38.38h.76a.38.38 0 00.381-.38v-.761a.38.38 0 00-.38-.38zm2.174 0h-.761a.38.38 0 00-.38.38v.762a.38.38 0 00.38.38h.76a.38.38 0 00.381-.38v-.761a.38.38 0 00-.38-.38zM2.554 17.391h-.76a.379.379 0 00-.381.38v.762a.38.38 0 00.38.38h.761a.38.38 0 00.38-.38v-.761a.38.38 0 00-.38-.38zm2.174 0h-.76a.379.379 0 00-.381.38v.762a.38.38 0 00.38.38h.761a.38.38 0 00.38-.38v-.761a.38.38 0 00-.38-.38zm2.174 0h-.76a.379.379 0 00-.381.38v.762a.38.38 0 00.38.38h.761a.38.38 0 00.38-.38v-.761a.38.38 0 00-.38-.38zm4.348 0h-.76a.38.38 0 00-.381.38v.762a.379.379 0 00.38.38h.761a.38.38 0 00.38-.38v-.761a.38.38 0 00-.38-.38zm2.174 0h-.761a.379.379 0 00-.38.38v.762a.379.379 0 00.38.38h.76a.38.38 0 00.381-.38v-.761a.38.38 0 00-.38-.38zm2.174 0h-.761a.379.379 0 00-.38.38v.762a.38.38 0 00.38.38h.76a.38.38 0 00.381-.38v-.761a.38.38 0 00-.38-.38zM2.554 19.565h-.76a.38.38 0 00-.381.38v.761a.38.38 0 00.38.381h.761a.38.38 0 00.38-.38v-.761a.38.38 0 00-.38-.38zm4.348 0h-.76a.38.38 0 00-.381.38v.761a.38.38 0 00.38.381h.761a.38.38 0 00.38-.38v-.761a.38.38 0 00-.38-.38zm2.174 0h-.76a.38.38 0 00-.381.38v.761a.38.38 0 00.38.381h.761a.38.38 0 00.38-.38v-.761a.38.38 0 00-.38-.38zm2.174 0h-.76a.38.38 0 00-.381.38v.761a.38.38 0 00.38.381h.761a.38.38 0 00.38-.38v-.761a.38.38 0 00-.38-.38zm4.348 0h-.761a.38.38 0 00-.38.38v.761a.38.38 0 00.38.381h.76a.38.38 0 00.381-.38v-.761a.38.38 0 00-.38-.38zm2.174 0h-.761a.38.38 0 00-.38.38v.761a.38.38 0 00.38.381h.76a.38.38 0 00.381-.38v-.761a.38.38 0 00-.38-.38z" fill="#000" fill-opacity=".8"/></svg>