<?xml version="1.0" encoding="utf-8" ?>
<svg xmlns="http://www.w3.org/2000/svg" xmlns:xlink="http://www.w3.org/1999/xlink" width="300" height="300">
	<path fill="white" d="M0 0L300 0L300 300L0 300L0 0Z"/>
	<path d="M82 18L90 18L90 26L82 26L82 18ZM90 18L98 18L98 26L90 26L90 18ZM98 18L106 18L106 26L98 26L98 18ZM122 18L130 18L130 26L122 26L122 18ZM130 18L138 18L138 26L130 26L130 18ZM146 18L154 18L154 26L146 26L146 18ZM154 18L162 18L162 26L154 26L154 18ZM162 18L170 18L170 26L162 26L162 18ZM170 18L178 18L178 26L170 26L170 18ZM186 18L194 18L194 26L186 26L186 18ZM202 18L210 18L210 26L202 26L202 18ZM82 26L90 26L90 34L82 34L82 26ZM106 26L114 26L114 34L106 34L106 26ZM114 26L122 26L122 34L114 34L114 26ZM122 26L130 26L130 34L122 34L122 26ZM146 26L154 26L154 34L146 34L146 26ZM162 26L170 26L170 34L162 34L162 26ZM178 26L186 26L186 34L178 34L178 26ZM194 26L202 26L202 34L194 34L194 26ZM202 26L210 26L210 34L202 34L202 26ZM90 34L98 34L98 42L90 42L90 34ZM114 34L122 34L122 42L114 42L114 34ZM138 34L146 34L146 42L138 42L138 34ZM154 34L162 34L162 42L154 42L154 34ZM170 34L178 34L178 42L170 42L170 34ZM82 42L90 42L90 50L82 50L82 42ZM98 42L106 42L106 50L98 50L98 42ZM130 42L138 42L138 50L130 50L130 42ZM146 42L154 42L154 50L146 50L146 42ZM178 42L186 42L186 50L178 50L178 42ZM202 42L210 42L210 50L202 50L202 42ZM90 50L98 50L98 58L90 58L90 50ZM130 50L138 50L138 58L130 58L130 50ZM178 50L186 50L186 58L178 58L178 50ZM186 50L194 50L194 58L186 58L186 50ZM194 50L202 50L202 58L194 58L194 50ZM90 58L98 58L98 66L90 66L90 58ZM98 58L106 58L106 66L98 66L98 58ZM114 58L122 58L122 66L114 66L114 58ZM154 58L162 58L162 66L154 66L154 58ZM162 58L170 58L170 66L162 66L162 58ZM170 58L178 58L178 66L170 66L170 58ZM178 58L186 58L186 66L178 66L178 58ZM186 58L194 58L194 66L186 66L186 58ZM210 58L218 58L218 66L210 66L210 58ZM82 66L90 66L90 74L82 74L82 66ZM98 66L106 66L106 74L98 74L98 66ZM114 66L122 66L122 74L114 74L114 66ZM130 66L138 66L138 74L130 74L130 66ZM146 66L154 66L154 74L146 74L146 66ZM162 66L170 66L170 74L162 74L162 66ZM178 66L186 66L186 74L178 74L178 66ZM194 66L202 66L202 74L194 74L194 66ZM210 66L218 66L218 74L210 74L210 66ZM82 74L90 74L90 82L82 82L82 74ZM90 74L98 74L98 82L90 82L90 74ZM154 74L162 74L162 82L154 82L154 74ZM162 74L170 74L170 82L162 82L162 74ZM178 74L186 74L186 82L178 82L178 74ZM194 74L202 74L202 82L194 82L194 74ZM210 74L218 74L218 82L210 82L210 74ZM18 82L26 82L26 90L18 90L18 82ZM34 82L42 82L42 90L34 90L34 82ZM42 82L50 82L50 90L42 90L42 82ZM58 82L66 82L66 90L58 90L58 82ZM66 82L74 82L74 90L66 90L66 82ZM74 82L82 82L82 90L74 90L74 82ZM90 82L98 82L98 90L90 90L90 82ZM106 82L114 82L114 90L106 90L106 82ZM114 82L122 82L122 90L114 90L114 82ZM130 82L138 82L138 90L130 90L130 82ZM146 82L154 82L154 90L146 90L146 82ZM154 82L162 82L162 90L154 90L154 82ZM162 82L170 82L170 90L162 90L162 82ZM170 82L178 82L178 90L170 90L170 82ZM178 82L186 82L186 90L178 90L178 82ZM186 82L194 82L194 90L186 90L186 82ZM226 82L234 82L234 90L226 90L226 82ZM250 82L258 82L258 90L250 90L250 82ZM266 82L274 82L274 90L266 90L266 82ZM274 82L282 82L282 90L274 90L274 82ZM18 90L26 90L26 98L18 98L18 90ZM26 90L34 90L34 98L26 98L26 90ZM42 90L50 90L50 98L42 98L42 90ZM50 90L58 90L58 98L50 98L50 90ZM58 90L66 90L66 98L58 98L58 90ZM90 90L98 90L98 98L90 98L90 90ZM98 90L106 90L106 98L98 98L98 90ZM114 90L122 90L122 98L114 98L114 90ZM162 90L170 90L170 98L162 98L162 90ZM170 90L178 90L178 98L170 98L170 90ZM186 90L194 90L194 98L186 98L186 90ZM194 90L202 90L202 98L194 98L194 90ZM202 90L210 90L210 98L202 98L202 90ZM226 90L234 90L234 98L226 98L226 90ZM250 90L258 90L258 98L250 98L250 90ZM258 90L266 90L266 98L258 98L258 90ZM274 90L282 90L282 98L274 98L274 90ZM26 98L34 98L34 106L26 106L26 98ZM34 98L42 98L42 106L34 106L34 98ZM42 98L50 98L50 106L42 106L42 98ZM58 98L66 98L66 106L58 106L58 98ZM66 98L74 98L74 106L66 106L66 98ZM74 98L82 98L82 106L74 106L74 98ZM82 98L90 98L90 106L82 106L82 98ZM98 98L106 98L106 106L98 106L98 98ZM130 98L138 98L138 106L130 106L130 98ZM154 98L162 98L162 106L154 106L154 98ZM178 98L186 98L186 106L178 106L178 98ZM194 98L202 98L202 106L194 106L194 98ZM202 98L210 98L210 106L202 106L202 98ZM226 98L234 98L234 106L226 106L226 98ZM234 98L242 98L242 106L234 106L234 98ZM242 98L250 98L250 106L242 106L242 98ZM250 98L258 98L258 106L250 106L250 98ZM274 98L282 98L282 106L274 106L274 98ZM34 106L42 106L42 114L34 114L34 106ZM50 106L58 106L58 114L50 114L50 106ZM82 106L90 106L90 114L82 114L82 106ZM90 106L98 106L98 114L90 114L90 106ZM98 106L106 106L106 114L98 114L98 106ZM122 106L130 106L130 114L122 114L122 106ZM130 106L138 106L138 114L130 114L130 106ZM138 106L146 106L146 114L138 114L138 106ZM146 106L154 106L154 114L146 114L146 106ZM162 106L170 106L170 114L162 114L162 106ZM170 106L178 106L178 114L170 114L170 106ZM194 106L202 106L202 114L194 114L194 106ZM210 106L218 106L218 114L210 114L210 106ZM234 106L242 106L242 114L234 114L234 106ZM250 106L258 106L258 114L250 114L250 106ZM266 106L274 106L274 114L266 114L266 106ZM274 106L282 106L282 114L274 114L274 106ZM18 114L26 114L26 122L18 122L18 114ZM34 114L42 114L42 122L34 122L34 114ZM42 114L50 114L50 122L42 122L42 114ZM58 114L66 114L66 122L58 122L58 114ZM66 114L74 114L74 122L66 122L66 114ZM82 114L90 114L90 122L82 122L82 114ZM98 114L106 114L106 122L98 122L98 114ZM106 114L114 114L114 122L106 122L106 114ZM114 114L122 114L122 122L114 122L114 114ZM138 114L146 114L146 122L138 122L138 114ZM162 114L170 114L170 122L162 122L162 114ZM170 114L178 114L178 122L170 122L170 114ZM202 114L210 114L210 122L202 122L202 114ZM234 114L242 114L242 122L234 122L234 114ZM242 114L250 114L250 122L242 122L242 114ZM250 114L258 114L258 122L250 122L250 114ZM266 114L274 114L274 122L266 122L266 114ZM274 114L282 114L282 122L274 122L274 114ZM42 122L50 122L50 130L42 130L42 122ZM58 122L66 122L66 130L58 130L58 122ZM74 122L82 122L82 130L74 130L74 122ZM82 122L90 122L90 130L82 130L82 122ZM98 122L106 122L106 130L98 130L98 122ZM114 122L122 122L122 130L114 130L114 122ZM146 122L154 122L154 130L146 130L146 122ZM154 122L162 122L162 130L154 130L154 122ZM162 122L170 122L170 130L162 130L162 122ZM194 122L202 122L202 130L194 130L194 122ZM218 122L226 122L226 130L218 130L218 122ZM234 122L242 122L242 130L234 130L234 122ZM258 122L266 122L266 130L258 130L258 122ZM266 122L274 122L274 130L266 130L266 122ZM18 130L26 130L26 138L18 138L18 130ZM26 130L34 130L34 138L26 138L26 130ZM34 130L42 130L42 138L34 138L34 130ZM50 130L58 130L58 138L50 138L50 130ZM58 130L66 130L66 138L58 138L58 130ZM66 130L74 130L74 138L66 138L66 130ZM74 130L82 130L82 138L74 138L74 130ZM106 130L114 130L114 138L106 138L106 130ZM114 130L122 130L122 138L114 138L114 130ZM138 130L146 130L146 138L138 138L138 130ZM146 130L154 130L154 138L146 138L146 130ZM186 130L194 130L194 138L186 138L186 130ZM194 130L202 130L202 138L194 138L194 130ZM226 130L234 130L234 138L226 138L226 130ZM234 130L242 130L242 138L234 138L234 130ZM242 130L250 130L250 138L242 138L242 130ZM250 130L258 130L258 138L250 138L250 130ZM258 130L266 130L266 138L258 138L258 130ZM18 138L26 138L26 146L18 146L18 138ZM26 138L34 138L34 146L26 146L26 138ZM34 138L42 138L42 146L34 146L34 138ZM50 138L58 138L58 146L50 146L50 138ZM74 138L82 138L82 146L74 146L74 138ZM82 138L90 138L90 146L82 146L82 138ZM122 138L130 138L130 146L122 146L122 138ZM130 138L138 138L138 146L130 146L130 138ZM146 138L154 138L154 146L146 146L146 138ZM170 138L178 138L178 146L170 146L170 138ZM178 138L186 138L186 146L178 146L178 138ZM186 138L194 138L194 146L186 146L186 138ZM194 138L202 138L202 146L194 146L194 138ZM210 138L218 138L218 146L210 146L210 138ZM258 138L266 138L266 146L258 146L258 138ZM18 146L26 146L26 154L18 154L18 146ZM26 146L34 146L34 154L26 154L26 146ZM34 146L42 146L42 154L34 154L34 146ZM42 146L50 146L50 154L42 154L42 146ZM66 146L74 146L74 154L66 154L66 146ZM74 146L82 146L82 154L74 154L74 146ZM82 146L90 146L90 154L82 154L82 146ZM114 146L122 146L122 154L114 154L114 146ZM130 146L138 146L138 154L130 154L130 146ZM138 146L146 146L146 154L138 154L138 146ZM146 146L154 146L154 154L146 154L146 146ZM162 146L170 146L170 154L162 154L162 146ZM170 146L178 146L178 154L170 154L170 146ZM186 146L194 146L194 154L186 154L186 146ZM194 146L202 146L202 154L194 154L194 146ZM218 146L226 146L226 154L218 154L218 146ZM226 146L234 146L234 154L226 154L226 146ZM242 146L250 146L250 154L242 154L242 146ZM258 146L266 146L266 154L258 154L258 146ZM26 154L34 154L34 162L26 162L26 154ZM42 154L50 154L50 162L42 162L42 154ZM58 154L66 154L66 162L58 162L58 154ZM82 154L90 154L90 162L82 162L82 154ZM90 154L98 154L98 162L90 162L90 154ZM98 154L106 154L106 162L98 162L98 154ZM106 154L114 154L114 162L106 162L106 154ZM114 154L122 154L122 162L114 162L114 154ZM122 154L130 154L130 162L122 162L122 154ZM138 154L146 154L146 162L138 162L138 154ZM154 154L162 154L162 162L154 162L154 154ZM162 154L170 154L170 162L162 162L162 154ZM202 154L210 154L210 162L202 162L202 154ZM210 154L218 154L218 162L210 162L210 154ZM218 154L226 154L226 162L218 162L218 154ZM226 154L234 154L234 162L226 162L226 154ZM242 154L250 154L250 162L242 162L242 154ZM250 154L258 154L258 162L250 162L250 154ZM266 154L274 154L274 162L266 162L266 154ZM274 154L282 154L282 162L274 162L274 154ZM26 162L34 162L34 170L26 170L26 162ZM34 162L42 162L42 170L34 170L34 162ZM50 162L58 162L58 170L50 170L50 162ZM58 162L66 162L66 170L58 170L58 162ZM66 162L74 162L74 170L66 170L66 162ZM74 162L82 162L82 170L74 170L74 162ZM90 162L98 162L98 170L90 170L90 162ZM106 162L114 162L114 170L106 170L106 162ZM114 162L122 162L122 170L114 170L114 162ZM138 162L146 162L146 170L138 170L138 162ZM146 162L154 162L154 170L146 170L146 162ZM154 162L162 162L162 170L154 170L154 162ZM186 162L194 162L194 170L186 170L186 162ZM218 162L226 162L226 170L218 170L218 162ZM242 162L250 162L250 170L242 170L242 162ZM258 162L266 162L266 170L258 170L258 162ZM266 162L274 162L274 170L266 170L266 162ZM18 170L26 170L26 178L18 178L18 170ZM34 170L42 170L42 178L34 178L34 170ZM58 170L66 170L66 178L58 178L58 170ZM74 170L82 170L82 178L74 178L74 170ZM106 170L114 170L114 178L106 178L106 170ZM122 170L130 170L130 178L122 178L122 170ZM130 170L138 170L138 178L130 178L130 170ZM178 170L186 170L186 178L178 178L178 170ZM194 170L202 170L202 178L194 178L194 170ZM202 170L210 170L210 178L202 178L202 170ZM226 170L234 170L234 178L226 178L226 170ZM234 170L242 170L242 178L234 178L234 170ZM242 170L250 170L250 178L242 178L242 170ZM266 170L274 170L274 178L266 178L266 170ZM274 170L282 170L282 178L274 178L274 170ZM58 178L66 178L66 186L58 186L58 178ZM66 178L74 178L74 186L66 186L66 178ZM74 178L82 178L82 186L74 186L74 178ZM82 178L90 178L90 186L82 186L82 178ZM90 178L98 178L98 186L90 186L90 178ZM122 178L130 178L130 186L122 186L122 178ZM162 178L170 178L170 186L162 186L162 178ZM170 178L178 178L178 186L170 186L170 178ZM186 178L194 178L194 186L186 186L186 178ZM194 178L202 178L202 186L194 186L194 178ZM210 178L218 178L218 186L210 186L210 178ZM218 178L226 178L226 186L218 186L218 178ZM234 178L242 178L242 186L234 186L234 178ZM250 178L258 178L258 186L250 186L250 178ZM258 178L266 178L266 186L258 186L258 178ZM266 178L274 178L274 186L266 186L266 178ZM18 186L26 186L26 194L18 194L18 186ZM58 186L66 186L66 194L58 194L58 186ZM74 186L82 186L82 194L74 194L74 186ZM82 186L90 186L90 194L82 194L82 186ZM98 186L106 186L106 194L98 194L98 186ZM114 186L122 186L122 194L114 194L114 186ZM122 186L130 186L130 194L122 194L122 186ZM130 186L138 186L138 194L130 194L130 186ZM138 186L146 186L146 194L138 194L138 186ZM162 186L170 186L170 194L162 194L162 186ZM186 186L194 186L194 194L186 194L186 186ZM194 186L202 186L202 194L194 194L194 186ZM202 186L210 186L210 194L202 194L202 186ZM210 186L218 186L218 194L210 194L210 186ZM218 186L226 186L226 194L218 194L218 186ZM226 186L234 186L234 194L226 194L226 186ZM234 186L242 186L242 194L234 194L234 186ZM250 186L258 186L258 194L250 194L250 186ZM258 186L266 186L266 194L258 194L258 186ZM274 186L282 186L282 194L274 194L274 186ZM34 194L42 194L42 202L34 202L34 194ZM58 194L66 194L66 202L58 202L58 194ZM66 194L74 194L74 202L66 202L66 194ZM82 194L90 194L90 202L82 202L82 194ZM98 194L106 194L106 202L98 202L98 194ZM114 194L122 194L122 202L114 202L114 194ZM130 194L138 194L138 202L130 202L130 194ZM146 194L154 194L154 202L146 202L146 194ZM154 194L162 194L162 202L154 202L154 194ZM194 194L202 194L202 202L194 202L194 194ZM202 194L210 194L210 202L202 202L202 194ZM218 194L226 194L226 202L218 202L218 194ZM250 194L258 194L258 202L250 202L250 194ZM266 194L274 194L274 202L266 202L266 194ZM274 194L282 194L282 202L274 202L274 194ZM26 202L34 202L34 210L26 210L26 202ZM50 202L58 202L58 210L50 210L50 202ZM58 202L66 202L66 210L58 210L58 202ZM82 202L90 202L90 210L82 210L82 202ZM130 202L138 202L138 210L130 210L130 202ZM146 202L154 202L154 210L146 210L146 202ZM170 202L178 202L178 210L170 210L170 202ZM178 202L186 202L186 210L178 210L178 202ZM194 202L202 202L202 210L194 210L194 202ZM226 202L234 202L234 210L226 210L226 202ZM234 202L242 202L242 210L234 210L234 202ZM242 202L250 202L250 210L242 210L242 202ZM250 202L258 202L258 210L250 210L250 202ZM266 202L274 202L274 210L266 210L266 202ZM274 202L282 202L282 210L274 210L274 202ZM18 210L26 210L26 218L18 218L18 210ZM50 210L58 210L58 218L50 218L50 210ZM58 210L66 210L66 218L58 218L58 210ZM66 210L74 210L74 218L66 218L66 210ZM74 210L82 210L82 218L74 218L74 210ZM82 210L90 210L90 218L82 218L82 210ZM98 210L106 210L106 218L98 218L98 210ZM106 210L114 210L114 218L106 218L106 210ZM114 210L122 210L122 218L114 218L114 210ZM122 210L130 210L130 218L122 218L122 210ZM130 210L138 210L138 218L130 218L130 210ZM138 210L146 210L146 218L138 218L138 210ZM146 210L154 210L154 218L146 218L146 210ZM154 210L162 210L162 218L154 218L154 210ZM178 210L186 210L186 218L178 218L178 210ZM202 210L210 210L210 218L202 218L202 210ZM210 210L218 210L218 218L210 218L210 210ZM218 210L226 210L226 218L218 218L218 210ZM226 210L234 210L234 218L226 218L226 210ZM234 210L242 210L242 218L234 218L234 210ZM242 210L250 210L250 218L242 218L242 210ZM82 218L90 218L90 226L82 226L82 218ZM90 218L98 218L98 226L90 226L90 218ZM98 218L106 218L106 226L98 226L98 218ZM106 218L114 218L114 226L106 226L106 218ZM114 218L122 218L122 226L114 226L114 218ZM130 218L138 218L138 226L130 226L130 218ZM138 218L146 218L146 226L138 226L138 218ZM146 218L154 218L154 226L146 226L146 218ZM154 218L162 218L162 226L154 226L154 218ZM170 218L178 218L178 226L170 226L170 218ZM178 218L186 218L186 226L178 226L178 218ZM194 218L202 218L202 226L194 226L194 218ZM202 218L210 218L210 226L202 226L202 218ZM210 218L218 218L218 226L210 226L210 218ZM242 218L250 218L250 226L242 226L242 218ZM250 218L258 218L258 226L250 226L250 218ZM82 226L90 226L90 234L82 234L82 226ZM98 226L106 226L106 234L98 234L98 226ZM106 226L114 226L114 234L106 234L106 226ZM114 226L122 226L122 234L114 234L114 226ZM122 226L130 226L130 234L122 234L122 226ZM130 226L138 226L138 234L130 234L130 226ZM170 226L178 226L178 234L170 234L170 226ZM194 226L202 226L202 234L194 234L194 226ZM202 226L210 226L210 234L202 234L202 226ZM210 226L218 226L218 234L210 234L210 226ZM226 226L234 226L234 234L226 234L226 226ZM242 226L250 226L250 234L242 234L242 226ZM82 234L90 234L90 242L82 242L82 234ZM122 234L130 234L130 242L122 242L122 234ZM130 234L138 234L138 242L130 242L130 234ZM146 234L154 234L154 242L146 242L146 234ZM186 234L194 234L194 242L186 242L186 234ZM202 234L210 234L210 242L202 242L202 234ZM210 234L218 234L218 242L210 242L210 234ZM242 234L250 234L250 242L242 242L242 234ZM258 234L266 234L266 242L258 242L258 234ZM266 234L274 234L274 242L266 242L266 234ZM274 234L282 234L282 242L274 242L274 234ZM106 242L114 242L114 250L106 250L106 242ZM138 242L146 242L146 250L138 250L138 242ZM154 242L162 242L162 250L154 250L154 242ZM170 242L178 242L178 250L170 250L170 242ZM178 242L186 242L186 250L178 250L178 242ZM186 242L194 242L194 250L186 250L186 242ZM202 242L210 242L210 250L202 250L202 242ZM210 242L218 242L218 250L210 250L210 242ZM218 242L226 242L226 250L218 250L218 242ZM226 242L234 242L234 250L226 250L226 242ZM234 242L242 242L242 250L234 250L234 242ZM242 242L250 242L250 250L242 250L242 242ZM258 242L266 242L266 250L258 250L258 242ZM274 242L282 242L282 250L274 250L274 242ZM82 250L90 250L90 258L82 258L82 250ZM90 250L98 250L98 258L90 258L90 250ZM122 250L130 250L130 258L122 258L122 250ZM130 250L138 250L138 258L130 258L130 250ZM154 250L162 250L162 258L154 258L154 250ZM162 250L170 250L170 258L162 258L162 250ZM178 250L186 250L186 258L178 258L178 250ZM186 250L194 250L194 258L186 258L186 250ZM202 250L210 250L210 258L202 258L202 250ZM210 250L218 250L218 258L210 258L210 250ZM274 250L282 250L282 258L274 258L274 250ZM82 258L90 258L90 266L82 266L82 258ZM98 258L106 258L106 266L98 266L98 258ZM106 258L114 258L114 266L106 266L106 258ZM122 258L130 258L130 266L122 266L122 258ZM130 258L138 258L138 266L130 266L130 258ZM162 258L170 258L170 266L162 266L162 258ZM178 258L186 258L186 266L178 266L178 258ZM210 258L218 258L218 266L210 266L210 258ZM226 258L234 258L234 266L226 266L226 258ZM234 258L242 258L242 266L234 266L234 258ZM90 266L98 266L98 274L90 274L90 266ZM106 266L114 266L114 274L106 274L106 266ZM138 266L146 266L146 274L138 274L138 266ZM146 266L154 266L154 274L146 274L146 266ZM154 266L162 266L162 274L154 274L154 266ZM162 266L170 266L170 274L162 274L162 266ZM210 266L218 266L218 274L210 274L210 266ZM226 266L234 266L234 274L226 274L226 266ZM242 266L250 266L250 274L242 274L242 266ZM250 266L258 266L258 274L250 274L250 266ZM274 266L282 266L282 274L274 274L274 266ZM82 274L90 274L90 282L82 282L82 274ZM106 274L114 274L114 282L106 282L106 274ZM114 274L122 274L122 282L114 282L114 274ZM138 274L146 274L146 282L138 282L138 274ZM146 274L154 274L154 282L146 282L146 274ZM154 274L162 274L162 282L154 282L154 274ZM170 274L178 274L178 282L170 282L170 274ZM178 274L186 274L186 282L178 282L178 274ZM186 274L194 274L194 282L186 282L186 274ZM194 274L202 274L202 282L194 282L194 274ZM226 274L234 274L234 282L226 282L226 274ZM250 274L258 274L258 282L250 282L250 274ZM258 274L266 274L266 282L258 282L258 274Z" fill-rule="evenodd"/>
	<path d="M18 18L74 18L74 74L18 74L18 18ZM26 26L66 26L66 66L26 66L26 26Z" fill-rule="evenodd"/>
	<path d="M34 34L58 34L58 58L34 58L34 34Z" fill-rule="evenodd"/>
	<path d="M282 18L282 74L226 74L226 18L282 18ZM274 26L274 66L234 66L234 26L274 26Z" fill-rule="evenodd"/>
	<path d="M266 34L266 58L242 58L242 34L266 34Z" fill-rule="evenodd"/>
	<path d="M18 282L18 226L74 226L74 282L18 282ZM26 274L26 234L66 234L66 274L26 274Z" fill-rule="evenodd"/>
	<path d="M34 266L34 242L58 242L58 266L34 266Z" fill-rule="evenodd"/>
</svg>
